<?xml version="1.0" encoding="iso-8859-1"?>
<!-- Generator: Adobe Illustrator 19.0.0, SVG Export Plug-In . SVG Version: 6.00 Build 0)  -->
<svg version="1.1" id="Layer_1" xmlns="http://www.w3.org/2000/svg" xmlns:xlink="http://www.w3.org/1999/xlink" x="0px" y="0px"
	 viewBox="0 0 512.003 512.003" style="enable-background:new 0 0 512.003 512.003;" xml:space="preserve">
<g>
	<path style="fill:#E66032;" d="M135.898,257.151L25.018,146.279l17.27-17.27c4.32-4.32,10.645-5.974,16.61-4.354l123.633,33.675
		L135.898,257.151z"/>
	<path style="fill:#E66032;" d="M255.315,376.576l109.089,109.089l17.27-17.27c4.32-4.32,6.017-10.611,4.448-16.507l-32.415-122.365
		L255.315,376.576z"/>
	<path style="fill:#E66032;" d="M256.849,378.101c56.618-16.104,107.023-42.802,151.094-86.865
		c66.166-66.166,107.083-160.547,103.886-240.873c-1.054-26.415-22.455-47.816-48.87-48.862
		c-80.342-3.18-174.775,37.788-240.933,103.946c-44.062,44.062-70.692,94.407-86.805,151.025L256.849,378.101z"/>
</g>
<path style="fill:#AD4826;" d="M185.463,149.142c-12.102,17.219-22.275,35.243-30.769,54.081l155.405,155.405
	c18.83-8.502,36.854-18.676,54.073-30.769L185.463,149.142z"/>
<g>
	<path style="fill:#F5B945;" d="M218.957,388.695l-96.97-96.97c-6.694-6.694-6.694-17.544,0-24.238l12.119-12.119l121.208,121.208
		l-12.119,12.119C236.502,395.389,225.651,395.389,218.957,388.695z"/>
	<ellipse style="fill:#F5B945;" cx="361.352" cy="151.853" rx="56.781" ry="56.781"/>
</g>
<path style="fill:#E66032;" d="M361.369,187.188c-9.445,0-18.324-3.685-24.992-10.362l12.119-12.119
	c6.882,6.882,18.873,6.882,25.755,0c3.437-3.437,5.34-8.014,5.34-12.873c0-4.86-1.903-9.445-5.34-12.882l12.119-12.119
	c6.677,6.677,10.362,15.556,10.362,25.001c0,9.445-3.685,18.324-10.362,24.992C379.693,183.511,370.814,187.188,361.369,187.188z"/>
<g>
	<ellipse style="fill:#F5B945;" cx="446.194" cy="67.024" rx="20.355" ry="20.355"/>
	<path style="fill:#F5B945;" d="M73.503,243.24L73.503,243.24c-6.694-6.694-6.694-17.544,0-24.238l12.119-12.119l24.238,24.238
		L97.741,243.24C91.047,249.934,80.197,249.934,73.503,243.24z"/>
	<path style="fill:#F5B945;" d="M267.442,437.18L267.442,437.18c-6.694-6.694-6.694-17.544,0-24.238l12.119-12.119l24.238,24.238
		L291.68,437.18C284.987,443.873,274.136,443.873,267.442,437.18z"/>
</g>
<g>
	<path style="fill:#E66032;" d="M49.642,291.348c-6.694,6.694-41.791,30.932-48.485,24.238s17.544-41.791,24.238-48.485
		s17.544-6.694,24.238,0S56.336,284.654,49.642,291.348z"/>
	<path style="fill:#E66032;" d="M243.573,485.279c-6.694,6.694-41.791,30.932-48.485,24.238
		c-6.694-6.694,17.544-41.791,24.238-48.485c6.694-6.694,17.544-6.694,24.238,0C250.258,467.726,250.266,478.585,243.573,485.279z"
		/>
	<path style="fill:#E66032;" d="M118.08,369.376c-12.693,12.693-79.237,58.658-91.93,45.965
		c-12.693-12.693,33.272-79.237,45.965-91.93s33.272-12.693,45.965,0C130.773,336.105,130.773,356.683,118.08,369.376z"/>
	<path style="fill:#E66032;" d="M187.768,439.099c-12.505,12.505-78.088,57.801-90.593,45.296s32.792-78.088,45.296-90.593
		c12.505-12.505,32.792-12.505,45.296,0C200.273,406.308,200.273,426.595,187.768,439.099z"/>
</g>
<g>
</g>
<g>
</g>
<g>
</g>
<g>
</g>
<g>
</g>
<g>
</g>
<g>
</g>
<g>
</g>
<g>
</g>
<g>
</g>
<g>
</g>
<g>
</g>
<g>
</g>
<g>
</g>
<g>
</g>
</svg>
